<mxfile host="app.diagrams.net" modified="2022-06-30T11:06:02.738Z" agent="5.0 (Macintosh; Intel Mac OS X 10_15_7) AppleWebKit/537.36 (KHTML, like Gecko) Chrome/102.0.0.0 Safari/537.36" etag="cTCEiPG-MzCcj1a7FjBn" version="20.0.1" type="github">
  <diagram id="Rgu9b10L2iE2rET0YDp5" name="Page-1">
    <mxGraphModel dx="2061" dy="708" grid="1" gridSize="10" guides="1" tooltips="1" connect="1" arrows="1" fold="1" page="1" pageScale="1" pageWidth="827" pageHeight="1169" math="0" shadow="0">
      <root>
        <mxCell id="0" />
        <mxCell id="1" parent="0" />
        <mxCell id="obfEuhz5tkYcAMHYfL_A-12" value="" style="verticalLabelPosition=bottom;verticalAlign=top;html=1;shape=mxgraph.basic.patternFillRect;fillStyle=diag;step=5;fillStrokeWidth=0.2;fillStrokeColor=#dddddd;fontFamily=Helvetica;fontSize=17;fillColor=#d5e8d4;strokeColor=#82b366;" vertex="1" parent="1">
          <mxGeometry x="470" y="250" width="150" height="120" as="geometry" />
        </mxCell>
        <mxCell id="obfEuhz5tkYcAMHYfL_A-13" value="" style="verticalLabelPosition=bottom;verticalAlign=top;html=1;shape=mxgraph.basic.patternFillRect;fillStyle=diag;step=5;fillStrokeWidth=0.2;fillStrokeColor=#dddddd;fontFamily=Helvetica;fontSize=17;fillColor=#d5e8d4;strokeColor=#82b366;" vertex="1" parent="1">
          <mxGeometry x="289.5" y="250" width="150" height="120" as="geometry" />
        </mxCell>
        <mxCell id="obfEuhz5tkYcAMHYfL_A-11" value="" style="verticalLabelPosition=bottom;verticalAlign=top;html=1;shape=mxgraph.basic.patternFillRect;fillStyle=diag;step=5;fillStrokeWidth=0.2;fillStrokeColor=#dddddd;fontFamily=Helvetica;fontSize=17;fillColor=#d5e8d4;strokeColor=#82b366;" vertex="1" parent="1">
          <mxGeometry x="120" y="250" width="150" height="120" as="geometry" />
        </mxCell>
        <mxCell id="obfEuhz5tkYcAMHYfL_A-10" value="" style="verticalLabelPosition=bottom;verticalAlign=top;html=1;shape=mxgraph.basic.patternFillRect;fillStyle=diag;step=5;fillStrokeWidth=0.2;fillStrokeColor=#dddddd;fontFamily=Helvetica;fontSize=17;fillColor=#d5e8d4;strokeColor=#82b366;" vertex="1" parent="1">
          <mxGeometry x="-60" y="250" width="150" height="120" as="geometry" />
        </mxCell>
        <mxCell id="llHA0F0XFK7gP-8ioZ1l-37" style="edgeStyle=orthogonalEdgeStyle;rounded=0;orthogonalLoop=1;jettySize=auto;html=1;exitX=0.5;exitY=1;exitDx=0;exitDy=0;exitPerimeter=0;entryX=0.5;entryY=0;entryDx=0;entryDy=0;" parent="1" source="z7aQq6HsLRBQIQAuG7Yg-2" target="llHA0F0XFK7gP-8ioZ1l-36" edge="1">
          <mxGeometry relative="1" as="geometry" />
        </mxCell>
        <mxCell id="z7aQq6HsLRBQIQAuG7Yg-2" value="" style="shape=cylinder3;whiteSpace=wrap;html=1;boundedLbl=1;backgroundOutline=1;size=15;" parent="1" vertex="1">
          <mxGeometry x="308" y="10" width="106" height="70" as="geometry" />
        </mxCell>
        <mxCell id="z7aQq6HsLRBQIQAuG7Yg-3" value="DB" style="text;html=1;resizable=0;autosize=1;align=center;verticalAlign=middle;points=[];fillColor=none;strokeColor=none;rounded=0;" parent="1" vertex="1">
          <mxGeometry x="346" y="50" width="30" height="20" as="geometry" />
        </mxCell>
        <mxCell id="llHA0F0XFK7gP-8ioZ1l-1" value="" style="group" parent="1" vertex="1" connectable="0">
          <mxGeometry x="310" y="690" width="100" height="60" as="geometry" />
        </mxCell>
        <mxCell id="z7aQq6HsLRBQIQAuG7Yg-13" value="" style="shape=cylinder3;whiteSpace=wrap;html=1;boundedLbl=1;backgroundOutline=1;size=15;" parent="llHA0F0XFK7gP-8ioZ1l-1" vertex="1">
          <mxGeometry width="100" height="60" as="geometry" />
        </mxCell>
        <mxCell id="z7aQq6HsLRBQIQAuG7Yg-14" value="es" style="text;html=1;resizable=0;autosize=1;align=center;verticalAlign=middle;points=[];fillColor=none;strokeColor=none;rounded=0;" parent="llHA0F0XFK7gP-8ioZ1l-1" vertex="1">
          <mxGeometry x="35" y="30" width="30" height="20" as="geometry" />
        </mxCell>
        <mxCell id="llHA0F0XFK7gP-8ioZ1l-3" value="scannal" style="text;html=1;resizable=0;autosize=1;align=center;verticalAlign=middle;points=[];fillColor=none;strokeColor=none;rounded=0;" parent="1" vertex="1">
          <mxGeometry x="384" y="100" width="60" height="20" as="geometry" />
        </mxCell>
        <mxCell id="llHA0F0XFK7gP-8ioZ1l-20" value="" style="group" parent="1" vertex="1" connectable="0">
          <mxGeometry x="-40" y="164" width="90" height="50" as="geometry" />
        </mxCell>
        <mxCell id="SS__GNAfp92p4op3PODm-1" value="" style="rounded=0;whiteSpace=wrap;html=1;" parent="llHA0F0XFK7gP-8ioZ1l-20" vertex="1">
          <mxGeometry width="90" height="50" as="geometry" />
        </mxCell>
        <mxCell id="z7aQq6HsLRBQIQAuG7Yg-1" value="kafka" style="text;html=1;resizable=0;autosize=1;align=center;verticalAlign=middle;points=[];fillColor=none;strokeColor=none;rounded=0;" parent="llHA0F0XFK7gP-8ioZ1l-20" vertex="1">
          <mxGeometry x="25.000000000000004" y="14.996666666666668" width="40" height="20" as="geometry" />
        </mxCell>
        <mxCell id="llHA0F0XFK7gP-8ioZ1l-21" value="" style="group" parent="1" vertex="1" connectable="0">
          <mxGeometry x="827" y="160" width="90" height="50" as="geometry" />
        </mxCell>
        <mxCell id="llHA0F0XFK7gP-8ioZ1l-22" value="" style="rounded=0;whiteSpace=wrap;html=1;" parent="llHA0F0XFK7gP-8ioZ1l-21" vertex="1">
          <mxGeometry width="90" height="50" as="geometry" />
        </mxCell>
        <mxCell id="llHA0F0XFK7gP-8ioZ1l-23" value="kafka" style="text;html=1;resizable=0;autosize=1;align=center;verticalAlign=middle;points=[];fillColor=none;strokeColor=none;rounded=0;" parent="llHA0F0XFK7gP-8ioZ1l-21" vertex="1">
          <mxGeometry x="25.000000000000004" y="14.996666666666668" width="40" height="20" as="geometry" />
        </mxCell>
        <mxCell id="llHA0F0XFK7gP-8ioZ1l-24" value="" style="group" parent="1" vertex="1" connectable="0">
          <mxGeometry x="660" y="160" width="90" height="50" as="geometry" />
        </mxCell>
        <mxCell id="llHA0F0XFK7gP-8ioZ1l-25" value="" style="rounded=0;whiteSpace=wrap;html=1;" parent="llHA0F0XFK7gP-8ioZ1l-24" vertex="1">
          <mxGeometry width="90" height="50" as="geometry" />
        </mxCell>
        <mxCell id="llHA0F0XFK7gP-8ioZ1l-26" value="kafka" style="text;html=1;resizable=0;autosize=1;align=center;verticalAlign=middle;points=[];fillColor=none;strokeColor=none;rounded=0;" parent="llHA0F0XFK7gP-8ioZ1l-24" vertex="1">
          <mxGeometry x="25.000000000000004" y="14.996666666666668" width="40" height="20" as="geometry" />
        </mxCell>
        <mxCell id="llHA0F0XFK7gP-8ioZ1l-27" value="" style="group" parent="1" vertex="1" connectable="0">
          <mxGeometry x="465" y="164" width="90" height="50" as="geometry" />
        </mxCell>
        <mxCell id="llHA0F0XFK7gP-8ioZ1l-28" value="" style="rounded=0;whiteSpace=wrap;html=1;" parent="llHA0F0XFK7gP-8ioZ1l-27" vertex="1">
          <mxGeometry width="90" height="50" as="geometry" />
        </mxCell>
        <mxCell id="llHA0F0XFK7gP-8ioZ1l-29" value="kafka" style="text;html=1;resizable=0;autosize=1;align=center;verticalAlign=middle;points=[];fillColor=none;strokeColor=none;rounded=0;" parent="llHA0F0XFK7gP-8ioZ1l-27" vertex="1">
          <mxGeometry x="25.000000000000004" y="14.996666666666668" width="40" height="20" as="geometry" />
        </mxCell>
        <mxCell id="llHA0F0XFK7gP-8ioZ1l-30" value="" style="group" parent="1" vertex="1" connectable="0">
          <mxGeometry x="319.5" y="164" width="90" height="50" as="geometry" />
        </mxCell>
        <mxCell id="llHA0F0XFK7gP-8ioZ1l-31" value="" style="rounded=0;whiteSpace=wrap;html=1;" parent="llHA0F0XFK7gP-8ioZ1l-30" vertex="1">
          <mxGeometry width="90" height="50" as="geometry" />
        </mxCell>
        <mxCell id="llHA0F0XFK7gP-8ioZ1l-32" value="kafka" style="text;html=1;resizable=0;autosize=1;align=center;verticalAlign=middle;points=[];fillColor=none;strokeColor=none;rounded=0;" parent="llHA0F0XFK7gP-8ioZ1l-30" vertex="1">
          <mxGeometry x="25.000000000000004" y="14.996666666666668" width="40" height="20" as="geometry" />
        </mxCell>
        <mxCell id="llHA0F0XFK7gP-8ioZ1l-33" value="" style="group" parent="1" vertex="1" connectable="0">
          <mxGeometry x="160" y="164" width="90" height="50" as="geometry" />
        </mxCell>
        <mxCell id="llHA0F0XFK7gP-8ioZ1l-34" value="" style="rounded=0;whiteSpace=wrap;html=1;" parent="llHA0F0XFK7gP-8ioZ1l-33" vertex="1">
          <mxGeometry width="90" height="50" as="geometry" />
        </mxCell>
        <mxCell id="llHA0F0XFK7gP-8ioZ1l-35" value="kafka" style="text;html=1;resizable=0;autosize=1;align=center;verticalAlign=middle;points=[];fillColor=none;strokeColor=none;rounded=0;" parent="llHA0F0XFK7gP-8ioZ1l-33" vertex="1">
          <mxGeometry x="25.000000000000004" y="14.996666666666668" width="40" height="20" as="geometry" />
        </mxCell>
        <mxCell id="llHA0F0XFK7gP-8ioZ1l-38" style="edgeStyle=orthogonalEdgeStyle;rounded=0;orthogonalLoop=1;jettySize=auto;html=1;exitX=0.5;exitY=1;exitDx=0;exitDy=0;entryX=0.5;entryY=0;entryDx=0;entryDy=0;" parent="1" source="llHA0F0XFK7gP-8ioZ1l-36" target="SS__GNAfp92p4op3PODm-1" edge="1">
          <mxGeometry relative="1" as="geometry" />
        </mxCell>
        <mxCell id="llHA0F0XFK7gP-8ioZ1l-41" style="edgeStyle=orthogonalEdgeStyle;rounded=0;orthogonalLoop=1;jettySize=auto;html=1;exitX=0.5;exitY=1;exitDx=0;exitDy=0;" parent="1" source="llHA0F0XFK7gP-8ioZ1l-36" edge="1">
          <mxGeometry relative="1" as="geometry">
            <mxPoint x="520" y="160" as="targetPoint" />
          </mxGeometry>
        </mxCell>
        <mxCell id="llHA0F0XFK7gP-8ioZ1l-42" style="edgeStyle=orthogonalEdgeStyle;rounded=0;orthogonalLoop=1;jettySize=auto;html=1;exitX=0.5;exitY=1;exitDx=0;exitDy=0;entryX=0.5;entryY=0;entryDx=0;entryDy=0;" parent="1" source="llHA0F0XFK7gP-8ioZ1l-36" edge="1" target="llHA0F0XFK7gP-8ioZ1l-25">
          <mxGeometry relative="1" as="geometry">
            <mxPoint x="640" y="160" as="targetPoint" />
          </mxGeometry>
        </mxCell>
        <mxCell id="llHA0F0XFK7gP-8ioZ1l-43" style="edgeStyle=orthogonalEdgeStyle;rounded=0;orthogonalLoop=1;jettySize=auto;html=1;exitX=0.5;exitY=1;exitDx=0;exitDy=0;entryX=0.5;entryY=0;entryDx=0;entryDy=0;" parent="1" source="llHA0F0XFK7gP-8ioZ1l-36" edge="1" target="llHA0F0XFK7gP-8ioZ1l-22">
          <mxGeometry relative="1" as="geometry">
            <mxPoint x="780" y="160" as="targetPoint" />
          </mxGeometry>
        </mxCell>
        <mxCell id="llHA0F0XFK7gP-8ioZ1l-44" style="edgeStyle=orthogonalEdgeStyle;rounded=0;orthogonalLoop=1;jettySize=auto;html=1;exitX=0.5;exitY=1;exitDx=0;exitDy=0;entryX=0.5;entryY=0;entryDx=0;entryDy=0;" parent="1" source="llHA0F0XFK7gP-8ioZ1l-36" target="llHA0F0XFK7gP-8ioZ1l-34" edge="1">
          <mxGeometry relative="1" as="geometry" />
        </mxCell>
        <mxCell id="llHA0F0XFK7gP-8ioZ1l-57" style="edgeStyle=orthogonalEdgeStyle;rounded=0;orthogonalLoop=1;jettySize=auto;html=1;exitX=0.5;exitY=1;exitDx=0;exitDy=0;fontSize=13;fontColor=#FF0000;" parent="1" source="llHA0F0XFK7gP-8ioZ1l-36" target="llHA0F0XFK7gP-8ioZ1l-31" edge="1">
          <mxGeometry relative="1" as="geometry" />
        </mxCell>
        <mxCell id="llHA0F0XFK7gP-8ioZ1l-36" value="" style="ellipse;whiteSpace=wrap;html=1;aspect=fixed;" parent="1" vertex="1">
          <mxGeometry x="352" y="95" width="25" height="25" as="geometry" />
        </mxCell>
        <mxCell id="llHA0F0XFK7gP-8ioZ1l-45" value="" style="endArrow=none;dashed=1;html=1;rounded=0;" parent="1" edge="1">
          <mxGeometry width="50" height="50" relative="1" as="geometry">
            <mxPoint x="110" y="707.5" as="sourcePoint" />
            <mxPoint x="110" y="37.5" as="targetPoint" />
          </mxGeometry>
        </mxCell>
        <mxCell id="llHA0F0XFK7gP-8ioZ1l-46" value="" style="endArrow=none;dashed=1;html=1;rounded=0;" parent="1" edge="1">
          <mxGeometry width="50" height="50" relative="1" as="geometry">
            <mxPoint x="280" y="710" as="sourcePoint" />
            <mxPoint x="280" y="40" as="targetPoint" />
          </mxGeometry>
        </mxCell>
        <mxCell id="llHA0F0XFK7gP-8ioZ1l-47" value="" style="endArrow=none;dashed=1;html=1;rounded=0;" parent="1" edge="1">
          <mxGeometry width="50" height="50" relative="1" as="geometry">
            <mxPoint x="450" y="720" as="sourcePoint" />
            <mxPoint x="450" y="50" as="targetPoint" />
          </mxGeometry>
        </mxCell>
        <mxCell id="llHA0F0XFK7gP-8ioZ1l-48" value="" style="endArrow=none;dashed=1;html=1;rounded=0;" parent="1" edge="1">
          <mxGeometry width="50" height="50" relative="1" as="geometry">
            <mxPoint x="634.5" y="700" as="sourcePoint" />
            <mxPoint x="634.5" y="30" as="targetPoint" />
          </mxGeometry>
        </mxCell>
        <mxCell id="llHA0F0XFK7gP-8ioZ1l-49" value="" style="endArrow=none;dashed=1;html=1;rounded=0;" parent="1" edge="1">
          <mxGeometry width="50" height="50" relative="1" as="geometry">
            <mxPoint x="784.5" y="707.5" as="sourcePoint" />
            <mxPoint x="784.5" y="37.5" as="targetPoint" />
          </mxGeometry>
        </mxCell>
        <mxCell id="llHA0F0XFK7gP-8ioZ1l-50" value="&lt;b style=&quot;color: rgb(255, 0, 0); font-size: 13px;&quot;&gt;PH&lt;/b&gt;" style="text;html=1;resizable=0;autosize=1;align=center;verticalAlign=middle;points=[];fillColor=none;strokeColor=none;rounded=0;" parent="1" vertex="1">
          <mxGeometry x="40" y="110" width="30" height="20" as="geometry" />
        </mxCell>
        <mxCell id="llHA0F0XFK7gP-8ioZ1l-51" value="&lt;b style=&quot;color: rgb(255, 0, 0); font-size: 13px;&quot;&gt;SG&lt;/b&gt;" style="text;html=1;resizable=0;autosize=1;align=center;verticalAlign=middle;points=[];fillColor=none;strokeColor=none;rounded=0;" parent="1" vertex="1">
          <mxGeometry x="190" y="110" width="30" height="20" as="geometry" />
        </mxCell>
        <mxCell id="llHA0F0XFK7gP-8ioZ1l-52" value="&lt;b style=&quot;color: rgb(255, 0, 0); font-size: 13px;&quot;&gt;MY&lt;/b&gt;" style="text;html=1;resizable=0;autosize=1;align=center;verticalAlign=middle;points=[];fillColor=none;strokeColor=none;rounded=0;" parent="1" vertex="1">
          <mxGeometry x="500" y="110" width="40" height="20" as="geometry" />
        </mxCell>
        <mxCell id="llHA0F0XFK7gP-8ioZ1l-53" value="&lt;b style=&quot;color: rgb(255, 0, 0); font-size: 13px;&quot;&gt;VN&lt;/b&gt;" style="text;html=1;resizable=0;autosize=1;align=center;verticalAlign=middle;points=[];fillColor=none;strokeColor=none;rounded=0;" parent="1" vertex="1">
          <mxGeometry x="685" y="110" width="30" height="20" as="geometry" />
        </mxCell>
        <mxCell id="llHA0F0XFK7gP-8ioZ1l-54" value="&lt;font color=&quot;#ff0000&quot;&gt;&lt;span style=&quot;font-size: 13px;&quot;&gt;&lt;b&gt;TH&lt;/b&gt;&lt;/span&gt;&lt;/font&gt;" style="text;html=1;resizable=0;autosize=1;align=center;verticalAlign=middle;points=[];fillColor=none;strokeColor=none;rounded=0;" parent="1" vertex="1">
          <mxGeometry x="830" y="110" width="30" height="20" as="geometry" />
        </mxCell>
        <mxCell id="llHA0F0XFK7gP-8ioZ1l-55" value="&lt;font color=&quot;#ff0000&quot; style=&quot;font-size: 13px;&quot;&gt;&lt;b&gt;ID&lt;/b&gt;&lt;/font&gt;" style="text;html=1;resizable=0;autosize=1;align=center;verticalAlign=middle;points=[];fillColor=none;strokeColor=none;rounded=0;fontSize=13;" parent="1" vertex="1">
          <mxGeometry x="316" y="110" width="30" height="20" as="geometry" />
        </mxCell>
        <mxCell id="llHA0F0XFK7gP-8ioZ1l-58" value="" style="group" parent="1" vertex="1" connectable="0">
          <mxGeometry x="140" y="690" width="100" height="60" as="geometry" />
        </mxCell>
        <mxCell id="llHA0F0XFK7gP-8ioZ1l-59" value="" style="shape=cylinder3;whiteSpace=wrap;html=1;boundedLbl=1;backgroundOutline=1;size=15;" parent="llHA0F0XFK7gP-8ioZ1l-58" vertex="1">
          <mxGeometry width="100" height="60" as="geometry" />
        </mxCell>
        <mxCell id="llHA0F0XFK7gP-8ioZ1l-60" value="es" style="text;html=1;resizable=0;autosize=1;align=center;verticalAlign=middle;points=[];fillColor=none;strokeColor=none;rounded=0;" parent="llHA0F0XFK7gP-8ioZ1l-58" vertex="1">
          <mxGeometry x="35" y="30" width="30" height="20" as="geometry" />
        </mxCell>
        <mxCell id="llHA0F0XFK7gP-8ioZ1l-61" value="" style="group" parent="1" vertex="1" connectable="0">
          <mxGeometry x="-38.64" y="690" width="100" height="60" as="geometry" />
        </mxCell>
        <mxCell id="obfEuhz5tkYcAMHYfL_A-16" style="edgeStyle=none;shape=connector;rounded=0;orthogonalLoop=1;jettySize=auto;html=1;exitX=0.855;exitY=1;exitDx=0;exitDy=-4.35;exitPerimeter=0;entryX=0.717;entryY=1.1;entryDx=0;entryDy=0;entryPerimeter=0;dashed=1;labelBackgroundColor=default;fontFamily=Helvetica;fontSize=17;fontColor=#000000;endArrow=none;strokeColor=#35FF26;fillColor=#33FF99;" edge="1" parent="llHA0F0XFK7gP-8ioZ1l-61" source="llHA0F0XFK7gP-8ioZ1l-62" target="llHA0F0XFK7gP-8ioZ1l-63">
          <mxGeometry relative="1" as="geometry" />
        </mxCell>
        <mxCell id="llHA0F0XFK7gP-8ioZ1l-62" value="" style="shape=cylinder3;whiteSpace=wrap;html=1;boundedLbl=1;backgroundOutline=1;size=15;" parent="llHA0F0XFK7gP-8ioZ1l-61" vertex="1">
          <mxGeometry x="-1.3636363636363635" width="100" height="60" as="geometry" />
        </mxCell>
        <mxCell id="llHA0F0XFK7gP-8ioZ1l-63" value="es" style="text;html=1;resizable=0;autosize=1;align=center;verticalAlign=middle;points=[];fillColor=none;strokeColor=none;rounded=0;" parent="llHA0F0XFK7gP-8ioZ1l-61" vertex="1">
          <mxGeometry x="35" y="30" width="30" height="20" as="geometry" />
        </mxCell>
        <mxCell id="llHA0F0XFK7gP-8ioZ1l-64" value="" style="group" parent="1" vertex="1" connectable="0">
          <mxGeometry x="490" y="710" width="100" height="60" as="geometry" />
        </mxCell>
        <mxCell id="llHA0F0XFK7gP-8ioZ1l-65" value="" style="shape=cylinder3;whiteSpace=wrap;html=1;boundedLbl=1;backgroundOutline=1;size=15;" parent="llHA0F0XFK7gP-8ioZ1l-64" vertex="1">
          <mxGeometry y="-20" width="100" height="60" as="geometry" />
        </mxCell>
        <mxCell id="llHA0F0XFK7gP-8ioZ1l-66" value="es" style="text;html=1;resizable=0;autosize=1;align=center;verticalAlign=middle;points=[];fillColor=none;strokeColor=none;rounded=0;" parent="llHA0F0XFK7gP-8ioZ1l-64" vertex="1">
          <mxGeometry x="35" y="10" width="30" height="20" as="geometry" />
        </mxCell>
        <mxCell id="llHA0F0XFK7gP-8ioZ1l-70" value="" style="group" parent="1" vertex="1" connectable="0">
          <mxGeometry x="850" y="690" width="90" height="55" as="geometry" />
        </mxCell>
        <mxCell id="llHA0F0XFK7gP-8ioZ1l-71" value="" style="shape=cylinder3;whiteSpace=wrap;html=1;boundedLbl=1;backgroundOutline=1;size=15;" parent="llHA0F0XFK7gP-8ioZ1l-70" vertex="1">
          <mxGeometry width="90" height="55.00000000000001" as="geometry" />
        </mxCell>
        <mxCell id="llHA0F0XFK7gP-8ioZ1l-72" value="es" style="text;html=1;resizable=0;autosize=1;align=center;verticalAlign=middle;points=[];fillColor=none;strokeColor=none;rounded=0;" parent="llHA0F0XFK7gP-8ioZ1l-70" vertex="1">
          <mxGeometry x="31.5" y="27.500000000000004" width="30" height="20" as="geometry" />
        </mxCell>
        <mxCell id="llHA0F0XFK7gP-8ioZ1l-74" value="" style="endArrow=none;dashed=1;html=1;rounded=0;fontSize=17;fontColor=#33FF33;fillColor=#33FF99;strokeColor=#35FF26;fontStyle=0;spacing=4;strokeWidth=3;" parent="1" edge="1">
          <mxGeometry width="50" height="50" relative="1" as="geometry">
            <mxPoint x="-80" y="240" as="sourcePoint" />
            <mxPoint x="1010" y="240" as="targetPoint" />
          </mxGeometry>
        </mxCell>
        <mxCell id="llHA0F0XFK7gP-8ioZ1l-75" value="" style="endArrow=none;dashed=1;html=1;rounded=0;fontSize=17;fontColor=#33FF33;fillColor=#33FF99;strokeColor=#35FF26;fontStyle=1;spacing=4;strokeWidth=3;" parent="1" edge="1">
          <mxGeometry width="50" height="50" relative="1" as="geometry">
            <mxPoint x="-80" y="380" as="sourcePoint" />
            <mxPoint x="1000" y="380" as="targetPoint" />
          </mxGeometry>
        </mxCell>
        <mxCell id="llHA0F0XFK7gP-8ioZ1l-77" value="" style="endArrow=none;dashed=1;html=1;rounded=0;fontSize=17;fontColor=#33FF33;fillColor=#33FF99;strokeColor=#35FF26;fontStyle=1;spacing=4;strokeWidth=3;" parent="1" edge="1">
          <mxGeometry width="50" height="50" relative="1" as="geometry">
            <mxPoint x="-80" y="520" as="sourcePoint" />
            <mxPoint x="1010" y="520" as="targetPoint" />
          </mxGeometry>
        </mxCell>
        <mxCell id="llHA0F0XFK7gP-8ioZ1l-68" value="" style="shape=cylinder3;whiteSpace=wrap;html=1;boundedLbl=1;backgroundOutline=1;size=15;" parent="1" vertex="1">
          <mxGeometry x="655" y="690" width="100" height="60" as="geometry" />
        </mxCell>
        <mxCell id="llHA0F0XFK7gP-8ioZ1l-76" value="" style="endArrow=none;dashed=1;html=1;rounded=0;fontSize=17;fontColor=#33FF33;fillColor=#33FF99;strokeColor=#35FF26;fontStyle=1;spacing=4;strokeWidth=3;" parent="1" edge="1">
          <mxGeometry width="50" height="50" relative="1" as="geometry">
            <mxPoint x="-80" y="650" as="sourcePoint" />
            <mxPoint x="1000" y="650" as="targetPoint" />
          </mxGeometry>
        </mxCell>
        <mxCell id="llHA0F0XFK7gP-8ioZ1l-79" value="es" style="text;html=1;resizable=0;autosize=1;align=center;verticalAlign=middle;points=[];fillColor=none;strokeColor=none;rounded=0;" parent="1" vertex="1">
          <mxGeometry x="690" y="717.5" width="30" height="20" as="geometry" />
        </mxCell>
        <mxCell id="llHA0F0XFK7gP-8ioZ1l-80" value="&lt;font color=&quot;#000000&quot;&gt;WALLET&lt;/font&gt;" style="text;html=1;resizable=0;autosize=1;align=center;verticalAlign=middle;points=[];fillColor=none;strokeColor=none;rounded=0;fontFamily=Helvetica;fontSize=17;fontColor=#33FF33;" parent="1" vertex="1">
          <mxGeometry x="-150" y="290" width="80" height="30" as="geometry" />
        </mxCell>
        <mxCell id="llHA0F0XFK7gP-8ioZ1l-81" value="&lt;font color=&quot;#000000&quot;&gt;PROMO&lt;/font&gt;" style="text;html=1;resizable=0;autosize=1;align=center;verticalAlign=middle;points=[];fillColor=none;strokeColor=none;rounded=0;fontFamily=Helvetica;fontSize=17;fontColor=#33FF33;" parent="1" vertex="1">
          <mxGeometry x="-150" y="450" width="80" height="30" as="geometry" />
        </mxCell>
        <mxCell id="llHA0F0XFK7gP-8ioZ1l-82" value="&lt;font color=&quot;#000000&quot;&gt;AS&lt;/font&gt;" style="text;html=1;resizable=0;autosize=1;align=center;verticalAlign=middle;points=[];fillColor=none;strokeColor=none;rounded=0;fontFamily=Helvetica;fontSize=17;fontColor=#33FF33;" parent="1" vertex="1">
          <mxGeometry x="-130" y="580" width="40" height="30" as="geometry" />
        </mxCell>
        <mxCell id="obfEuhz5tkYcAMHYfL_A-15" style="edgeStyle=none;shape=connector;rounded=0;orthogonalLoop=1;jettySize=auto;html=1;exitX=0.75;exitY=1;exitDx=0;exitDy=0;dashed=1;labelBackgroundColor=default;fontFamily=Helvetica;fontSize=17;fontColor=#000000;endArrow=none;strokeColor=#35FF26;fillColor=#33FF99;" edge="1" parent="1" source="obfEuhz5tkYcAMHYfL_A-1">
          <mxGeometry relative="1" as="geometry">
            <mxPoint x="220" y="300" as="targetPoint" />
          </mxGeometry>
        </mxCell>
        <mxCell id="obfEuhz5tkYcAMHYfL_A-1" value="&lt;span style=&quot;font-family: Arial; font-size: 13px; text-align: left; background-color: rgb(255, 255, 255);&quot;&gt;order_tab&lt;/span&gt;" style="rounded=0;whiteSpace=wrap;html=1;fontFamily=Helvetica;fontSize=17;fontColor=#000000;" vertex="1" parent="1">
          <mxGeometry x="152.5" y="270" width="85" height="30" as="geometry" />
        </mxCell>
        <mxCell id="obfEuhz5tkYcAMHYfL_A-2" value="&lt;span style=&quot;font-family: Arial; font-size: 13px; text-align: left; background-color: rgb(255, 255, 255);&quot;&gt;engine_fund_transaction&lt;/span&gt;" style="rounded=0;whiteSpace=wrap;html=1;fontFamily=Helvetica;fontSize=17;fontColor=#000000;" vertex="1" parent="1">
          <mxGeometry x="120" y="320" width="150" height="30" as="geometry" />
        </mxCell>
        <mxCell id="obfEuhz5tkYcAMHYfL_A-4" value="&lt;span style=&quot;font-family: Arial; font-size: 13px; text-align: left; background-color: rgb(255, 255, 255);&quot;&gt;order_tab&lt;/span&gt;" style="rounded=0;whiteSpace=wrap;html=1;fontFamily=Helvetica;fontSize=17;fontColor=#000000;" vertex="1" parent="1">
          <mxGeometry x="-27.5" y="270" width="85" height="30" as="geometry" />
        </mxCell>
        <mxCell id="obfEuhz5tkYcAMHYfL_A-5" value="&lt;span style=&quot;font-family: Arial; font-size: 13px; text-align: left; background-color: rgb(255, 255, 255);&quot;&gt;engine_fund_transaction&lt;/span&gt;" style="rounded=0;whiteSpace=wrap;html=1;fontFamily=Helvetica;fontSize=17;fontColor=#000000;" vertex="1" parent="1">
          <mxGeometry x="-60" y="320" width="150" height="30" as="geometry" />
        </mxCell>
        <mxCell id="obfEuhz5tkYcAMHYfL_A-6" value="&lt;span style=&quot;font-family: Arial; font-size: 13px; text-align: left; background-color: rgb(255, 255, 255);&quot;&gt;order_tab&lt;/span&gt;" style="rounded=0;whiteSpace=wrap;html=1;fontFamily=Helvetica;fontSize=17;fontColor=#000000;" vertex="1" parent="1">
          <mxGeometry x="315" y="270" width="85" height="30" as="geometry" />
        </mxCell>
        <mxCell id="obfEuhz5tkYcAMHYfL_A-7" value="&lt;span style=&quot;font-family: Arial; font-size: 13px; text-align: left; background-color: rgb(255, 255, 255);&quot;&gt;engine_fund_transaction&lt;/span&gt;" style="rounded=0;whiteSpace=wrap;html=1;fontFamily=Helvetica;fontSize=17;fontColor=#000000;" vertex="1" parent="1">
          <mxGeometry x="289.5" y="320" width="150" height="30" as="geometry" />
        </mxCell>
        <mxCell id="obfEuhz5tkYcAMHYfL_A-8" value="&lt;span style=&quot;font-family: Arial; font-size: 13px; text-align: left; background-color: rgb(255, 255, 255);&quot;&gt;order_tab&lt;/span&gt;" style="rounded=0;whiteSpace=wrap;html=1;fontFamily=Helvetica;fontSize=17;fontColor=#000000;" vertex="1" parent="1">
          <mxGeometry x="500" y="270" width="85" height="30" as="geometry" />
        </mxCell>
        <mxCell id="obfEuhz5tkYcAMHYfL_A-9" value="&lt;span style=&quot;font-family: Arial; font-size: 13px; text-align: left; background-color: rgb(255, 255, 255);&quot;&gt;engine_fund_transaction&lt;/span&gt;" style="rounded=0;whiteSpace=wrap;html=1;fontFamily=Helvetica;fontSize=17;fontColor=#000000;" vertex="1" parent="1">
          <mxGeometry x="470" y="320" width="150" height="30" as="geometry" />
        </mxCell>
        <mxCell id="obfEuhz5tkYcAMHYfL_A-14" style="edgeStyle=none;shape=connector;rounded=0;orthogonalLoop=1;jettySize=auto;html=1;exitX=0.75;exitY=1;exitDx=0;exitDy=0;entryX=0.6;entryY=1.067;entryDx=0;entryDy=0;entryPerimeter=0;dashed=1;labelBackgroundColor=default;fontFamily=Helvetica;fontSize=17;fontColor=#000000;endArrow=none;strokeColor=#35FF26;fillColor=#33FF99;" edge="1" parent="1" source="obfEuhz5tkYcAMHYfL_A-1" target="obfEuhz5tkYcAMHYfL_A-1">
          <mxGeometry relative="1" as="geometry" />
        </mxCell>
      </root>
    </mxGraphModel>
  </diagram>
</mxfile>
